<svg xmlns="http://www.w3.org/2000/svg" width="24" height="24" viewBox="0 0 24 24" fill="white"><path d="M12.001 2.002c-5.522 0-9.999 4.477-9.999 9.999s4.477 10 9.999 10c5.523 0 10.001-4.478 10.001-10s-4.478-9.999-10.001-9.999zm0 18.235c-4.541 0-8.234-3.694-8.234-8.236 0-4.54 3.693-8.234 8.234-8.234 4.542 0 8.236 3.694 8.236 8.234 0 4.542-3.694 8.236-8.236 8.236zm.543-13.344h-2.138v10.218h2.138c2.44 0 4.301-1.815 4.301-5.109s-1.861-5.109-4.301-5.109zm0 8.42h-.803v-6.622h.803c1.472 0 2.493 1.104 2.493 3.311s-1.021 3.311-2.493 3.311z"/></svg>