<svg width="175" height="45" viewBox="55 228 175 45" overflow="hidden" fill="none" xmlns="http://www.w3.org/2000/svg">
<path d="M60.4409 266.686V231.669H66.4912V266.686H60.4409Z" fill="#0F0F0F"/>
<path d="M70.6851 266.686V241.47H76.4841V245.268C78.1851 242.417 81.4326 240.812 84.8347 240.812C90.4888 240.812 93.8425 244.466 93.8425 250.864V266.676H88.0435V251.57C88.0435 247.771 85.9462 245.664 82.7374 245.664C79.1806 245.664 76.4841 248.564 76.4841 252.469V266.676H70.6851V266.686Z" fill="#0F0F0F"/>
<path d="M103.683 266.686L94.4814 241.47H100.735L107.143 260.732L113.551 241.47H119.852L110.651 266.686H103.683Z" fill="#0F0F0F"/>
<path d="M121.302 266.686V241.47H127.159V266.686H121.302ZM121.099 237.72V231.669H127.352V237.72H121.099Z" fill="#0F0F0F"/>
<path d="M140.691 267.333C133.79 267.333 129.682 264.028 129.286 258.78H135.143C135.646 261.583 137.598 262.878 140.846 262.878C143.697 262.878 145.494 261.631 145.494 259.679C145.494 258.132 144.344 257.127 142.247 256.673L137.192 255.668C133.49 254.865 129.992 253.019 129.992 248.516C129.992 244.012 134.244 240.812 140.295 240.812C146.345 240.812 150.453 243.316 150.955 248.815H145.156C144.76 246.467 143.001 245.21 140.208 245.21C137.608 245.21 135.81 246.457 135.81 248.216C135.81 249.975 137.211 250.719 138.961 251.067L144.364 252.121C147.766 252.768 151.419 254.721 151.419 259.321C151.419 264.376 146.867 267.324 140.71 267.324H140.691V267.333Z" fill="#0F0F0F"/>
<path d="M153.844 266.686V241.47H159.701V266.686H153.844ZM153.148 234.569C153.148 232.568 154.753 230.964 156.754 230.964C158.754 230.964 160.359 232.568 160.359 234.569C160.359 236.569 158.754 238.174 156.754 238.174C154.753 238.174 153.148 236.569 153.148 234.569Z" fill="#0F0F0F"/>
<path d="M177.581 267.333C174.179 267.333 171.328 265.98 169.327 263.032V266.686H163.528V231.669H169.327V245.075C171.125 242.32 174.179 240.822 177.581 240.822C183.187 240.822 188.135 245.722 188.135 253.976C188.135 262.23 183.187 267.333 177.581 267.333ZM169.172 254.024C169.172 258.876 171.521 262.53 175.677 262.53C179.833 262.53 182.181 258.876 182.181 253.976C182.181 249.076 179.784 245.626 175.677 245.626C171.569 245.626 169.172 249.182 169.172 254.034V254.024Z" fill="#0F0F0F"/>
<path d="M190.543 266.686V231.669H196.342V266.686H190.541Z" fill="#0F0F0F"/>
<path d="M211.022 267.333C203.522 267.333 198.767 261.679 198.767 254.073C198.767 246.467 203.522 240.812 211.022 240.812C217.624 240.812 223.026 244.611 222.63 255.523H204.566C204.914 259.679 206.866 262.781 211.071 262.781C213.922 262.781 215.826 261.38 216.628 258.78H222.331C221.528 263.583 217.624 267.333 211.022 267.333ZM204.672 251.628H216.928C216.628 247.22 214.531 245.326 211.022 245.326C207.166 245.326 205.223 248.081 204.672 251.628Z" fill="#0F0F0F"/>
</svg>
